<?xml version="1.0" standalone="no"?>
<!DOCTYPE svg PUBLIC "-//W3C//DTD SVG 20010904//EN"
 "http://www.w3.org/TR/2001/REC-SVG-20010904/DTD/svg10.dtd">
<svg version="1.0" xmlns="http://www.w3.org/2000/svg"
 width="786.000000pt" height="786.000000pt" viewBox="0 0 786.000000 786.000000"
 preserveAspectRatio="xMidYMid meet">
<metadata>
Created by potrace 1.11, written by Peter Selinger 2001-2013
</metadata>
<g transform="translate(0.000000,786.000000) scale(0.100000,-0.100000)"
fill="#000000" stroke="none">
<path d="M4045 7089 c-122 -12 -305 -45 -390 -70 -38 -12 -171 -57 -295 -101
-327 -117 -374 -127 -625 -139 -239 -10 -343 -26 -482 -70 -428 -136 -713
-433 -1071 -1113 -52 -100 -136 -253 -187 -341 -51 -88 -115 -205 -143 -260
-187 -376 -258 -722 -222 -1086 49 -493 219 -969 534 -1493 53 -88 100 -175
106 -195 5 -20 12 -97 15 -171 17 -383 58 -531 181 -652 64 -63 160 -123 228
-143 74 -22 190 -19 322 10 64 14 133 25 154 25 48 0 169 -42 365 -127 572
-248 784 -318 1115 -368 153 -23 385 -30 510 -16 378 43 780 204 1098 440 43
32 128 104 190 159 61 56 117 102 123 102 22 0 243 92 354 147 434 216 699
529 859 1013 l48 145 117 120 c127 129 166 181 211 278 56 119 73 205 73 377
1 179 -19 301 -78 470 -72 205 -147 340 -391 701 -241 358 -274 428 -365 773
-104 396 -178 551 -373 784 -202 240 -455 437 -741 578 -221 108 -396 164
-640 205 -140 23 -458 33 -600 18z"/>
</g>
</svg>
